<svg width="25" height="22" viewBox="0 0 25 22" fill="none" xmlns="http://www.w3.org/2000/svg">
<path d="M24.46 10.5C24.46 15.9622 19.3761 20.5 12.96 20.5C8.43686 20.5 5.41885 20.7829 3.44383 20.971L3.41074 20.9742C2.43199 21.0674 1.74491 21.1328 1.25295 21.1328C0.723173 21.1328 0.592389 21.0503 0.563535 21.0214C0.548264 21.0062 0.474596 20.915 0.509365 20.4515C0.536125 20.0947 0.614167 19.6335 0.719748 19.0095C0.744108 18.8656 0.769934 18.7129 0.796934 18.551C1.08087 16.8473 1.45999 14.2868 1.45999 10.5C1.45999 5.03778 6.54392 0.5 12.96 0.5C19.3761 0.5 24.46 5.03778 24.46 10.5Z" fill="#828282" stroke="#333333"/>
<path d="M23 10.7367C23 15.5619 18.4798 19.4735 12.9038 19.4735C-2.24041 19.4735 2.80768 23.2178 2.80769 10.7367C2.80769 5.91157 7.32789 2 12.9038 2C18.4798 2 23 5.91157 23 10.7367Z" fill="#333333"/>
<path d="M23 10.7367C23 15.5619 18.4798 19.4735 12.9038 19.4735C-2.24041 19.4735 2.80768 23.2178 2.80769 10.7367C2.80769 5.91157 7.32789 2 12.9038 2C18.4798 2 23 5.91157 23 10.7367Z" fill="#333333"/>
<line x1="6" y1="7.5" x2="19" y2="7.5" stroke="#828282"/>
<line x1="6" y1="10.5" x2="19" y2="10.5" stroke="#828282"/>
<path d="M6 13.5H19" stroke="#828282"/>
</svg>
