<svg width="40" height="40" viewBox="0 0 40 40" fill="none" xmlns="http://www.w3.org/2000/svg">
<circle cx="20.0002" cy="13.3333" r="5.66667" stroke="white" stroke-width="2" stroke-linecap="round"/>
<path d="M24.8694 13C25.3998 12.0813 26.2735 11.4109 27.2982 11.1363C28.3229 10.8617 29.4148 11.0055 30.3335 11.5359C31.2522 12.0663 31.9226 12.94 32.1972 13.9647C32.4718 14.9894 32.328 16.0813 31.7976 17C31.2672 17.9187 30.3935 18.5891 29.3688 18.8637C28.3441 19.1383 27.2522 18.9945 26.3335 18.4641C25.4148 17.9337 24.7444 17.06 24.4698 16.0353C24.1952 15.0106 24.339 13.9187 24.8694 13L24.8694 13Z" stroke="white" stroke-width="2"/>
<path d="M8.2024 13C8.73284 12.0813 9.60651 11.4109 10.6312 11.1363C11.6559 10.8617 12.7478 11.0055 13.6665 11.5359C14.5852 12.0663 15.2556 12.94 15.5302 13.9647C15.8048 14.9894 15.661 16.0813 15.1306 17C14.6002 17.9187 13.7265 18.5891 12.7018 18.8637C11.6771 19.1383 10.5852 18.9945 9.6665 18.4641C8.74777 17.9337 8.07737 17.06 7.8028 16.0353C7.52823 15.0106 7.67197 13.9187 8.2024 13L8.2024 13Z" stroke="white" stroke-width="2"/>
<path d="M28.1361 30L27.1558 30.1974L27.3174 31H28.1361V30ZM34.7615 28.8955L33.7979 29.1627L33.7979 29.1627L34.7615 28.8955ZM24.6348 24.5176L24.0299 23.7212L22.8733 24.5997L24.1066 25.3667L24.6348 24.5176ZM33.8673 29H28.1361V31H33.8673V29ZM33.7979 29.1627C33.7944 29.1503 33.7914 29.1249 33.7984 29.0938C33.8049 29.0646 33.8176 29.0424 33.8296 29.0278C33.8534 28.999 33.8735 29 33.8673 29V31C35.0385 31 36.0863 29.9304 35.7251 28.6282L33.7979 29.1627ZM28.3334 24.3333C30.1695 24.3333 31.3809 25.0945 32.2174 26.0591C33.0809 27.0548 33.5546 28.2857 33.7979 29.1627L35.7251 28.6282C35.4429 27.6107 34.8659 26.0605 33.7284 24.7488C32.5639 23.4059 30.824 22.3333 28.3334 22.3333V24.3333ZM25.2396 25.3139C25.9945 24.7405 26.9887 24.3333 28.3334 24.3333V22.3333C26.5449 22.3333 25.1271 22.8878 24.0299 23.7212L25.2396 25.3139ZM24.1066 25.3667C26.0683 26.5868 26.8508 28.6833 27.1558 30.1974L29.1164 29.8026C28.7677 28.0713 27.8139 25.3172 25.1629 23.6684L24.1066 25.3667Z" fill="white"/>
<path d="M15.3655 24.5175L15.8936 25.3667L17.1269 24.5997L15.9703 23.7212L15.3655 24.5175ZM5.23874 28.8955L4.27512 28.6282L4.27512 28.6282L5.23874 28.8955ZM11.8641 30V31H12.6828L12.8444 30.1974L11.8641 30ZM11.6668 24.3333C13.0115 24.3333 14.0057 24.7405 14.7606 25.3139L15.9703 23.7212C14.8731 22.8878 13.4554 22.3333 11.6668 22.3333V24.3333ZM6.20237 29.1627C6.44562 28.2857 6.91937 27.0548 7.78284 26.0591C8.61933 25.0945 9.83078 24.3333 11.6668 24.3333V22.3333C9.17627 22.3333 7.4364 23.4059 6.27187 24.7488C5.13432 26.0605 4.55734 27.6107 4.27512 28.6282L6.20237 29.1627ZM6.13294 29C6.1267 29 6.1468 28.999 6.17059 29.0278C6.18265 29.0424 6.19529 29.0646 6.20184 29.0938C6.2088 29.1249 6.20581 29.1503 6.20237 29.1627L4.27512 28.6282C3.91395 29.9304 4.96176 31 6.13294 31V29ZM11.8641 29H6.13294V31H11.8641V29ZM12.8444 30.1974C13.1493 28.6833 13.9319 26.5867 15.8936 25.3667L14.8373 23.6684C12.1863 25.3171 11.2324 28.0713 10.8838 29.8026L12.8444 30.1974Z" fill="white"/>
<path d="M19.9998 23.3333C26.537 23.3333 27.946 28.4614 28.2497 30.6721C28.3249 31.2192 27.8855 31.6667 27.3332 31.6667H12.6665C12.1142 31.6667 11.6748 31.2192 11.75 30.6721C12.0537 28.4614 13.4627 23.3333 19.9998 23.3333Z" stroke="white" stroke-width="2" stroke-linecap="round"/>
</svg>
