<svg width="27" height="27" viewBox="0 0 27 27" fill="none" xmlns="http://www.w3.org/2000/svg">
<path d="M15.0458 0.567213C14.1784 -0.189071 12.8216 -0.189071 11.9542 0.567213L1.05633 10.0694C0.38205 10.6574 0 11.4754 0 12.3312V23.8875C0 25.6064 1.51103 27 3.375 27H6.75C8.61397 27 10.125 25.6064 10.125 23.8875V18.6999C10.125 18.127 10.6287 17.6625 11.25 17.6625H15.75C16.3713 17.6625 16.875 18.127 16.875 18.6999V23.8875C16.875 25.6064 18.3861 27 20.25 27H23.625C25.4889 27 27 25.6064 27 23.8875V12.3312C27 11.4754 26.618 10.6574 25.9436 10.0694L15.0458 0.567213Z" fill="#EEE4E4"/>
</svg>
