<svg width="25" height="25" viewBox="0 0 25 25" fill="none" xmlns="http://www.w3.org/2000/svg">
<path fill-rule="evenodd" clip-rule="evenodd" d="M0.512537 6.51244C0.125 7.78998 0.125 9.35998 0.125 12.5C0.125 15.64 0.125 17.21 0.512537 18.4876C1.38509 21.364 3.63603 23.6149 6.51244 24.4875C7.78998 24.875 9.35998 24.875 12.5 24.875H18.875C21.7034 24.875 23.1176 24.875 23.9963 23.9963C24.875 23.1176 24.875 21.7034 24.875 18.875V12.5C24.875 9.35998 24.875 7.78998 24.4875 6.51244C23.6149 3.63603 21.364 1.38509 18.4876 0.512537C17.21 0.125 15.64 0.125 12.5 0.125C9.35998 0.125 7.78998 0.125 6.51244 0.512537C3.63603 1.38509 1.38509 3.63603 0.512537 6.51244ZM7.375 11.125C7.375 10.5727 7.82272 10.125 8.375 10.125H16.625C17.1773 10.125 17.625 10.5727 17.625 11.125C17.625 11.6773 17.1773 12.125 16.625 12.125H8.375C7.82272 12.125 7.375 11.6773 7.375 11.125ZM11.5 16.625C11.5 16.0727 11.9477 15.625 12.5 15.625H16.625C17.1773 15.625 17.625 16.0727 17.625 16.625C17.625 17.1773 17.1773 17.625 16.625 17.625H12.5C11.9477 17.625 11.5 17.1773 11.5 16.625Z" fill="white"/>
</svg>
